<svg xmlns="http://www.w3.org/2000/svg" viewBox="158.5 182.0 911 911" width="911" height="911">
<g transform="scale(0.25) translate(0,5016) scale(0.10000,-0.10000)" fill="#F2F3F5" stroke="none"><path d="M25045 41274 c-1974 -66 -4196 -614 -5860 -1446 -675 -338 -937 -684
-1015 -1342 -106 -892 -382 -1411 -863 -1624 -231 -102 -323 -42 -353 230
-115 1046 -1124 1699 -1714 1108 -514 -513 -135 -1417 760 -1815 200 -89 225
-102 254 -131 174 -176 -236 -659 -686 -808 -239 -80 -301 -24 -358 321 -184
1108 -1172 1752 -1771 1153 -553 -553 -107 -1473 928 -1910 131 -56 173 -84
197 -133 104 -221 -423 -766 -745 -769 -146 -2 -190 52 -246 302 -220 984
-1122 1571 -1705 1110 -643 -510 -170 -1536 863 -1873 295 -97 352 -166 270
-331 -132 -268 -544 -365 -1066 -253 -418 91 -408 89 -545 84 -536 -21 -793
-309 -1305 -1462 -1437 -3236 -1542 -7070 -301 -10955 611 -1916 1440 -3435
2705 -4960 3491 -4210 8788 -6697 13606 -6390 1690 108 3450 510 4789 1094
759 331 1009 1035 528 1488 -253 238 -487 238 -1097 0 -896 -349 -1619 -564
-2465 -732 -2154 -428 -4418 -256 -6259 476 -1633 649 -3096 1423 -4231 2237
-2350 1687 -4092 3749 -5162 6112 -1607 3550 -1654 7958 -118 11025 250 499
368 666 735 1040 475 483 621 709 730 1130 65 249 100 284 378 365 560 163
854 407 1131 934 149 283 158 289 526 375 532 125 986 501 1200 996 116 267
150 296 446 371 409 103 613 213 1067 572 1040 822 1516 1099 2615 1521 5692
2184 11793 251 15274 -4839 2609 -3817 2819 -8830 491 -11730 -1010 -1258
-2416 -1947 -3633 -1782 -1342 182 -1905 1200 -1695 3062 14 121 25 254 25
295 0 41 7 154 15 250 8 96 15 216 15 265 0 50 7 146 15 215 8 69 19 200 25
293 5 92 14 198 19 235 6 37 13 112 16 167 4 55 22 240 40 410 19 171 39 364
45 430 13 138 163 1352 185 1495 8 52 24 173 35 269 11 96 31 240 45 320 13
80 31 211 39 291 23 219 122 989 155 1210 17 107 39 281 51 385 19 177 109
893 215 1710 186 1438 192 1683 49 1994 -217 472 -730 735 -1223 629 -552
-118 -836 -421 -1156 -1233 -203 -514 -315 -788 -518 -1260 -118 -275 -234
-540 -259 -590 -25 -49 -87 -182 -139 -295 -118 -259 -709 -1447 -788 -1583
-32 -56 -94 -169 -138 -252 -44 -82 -112 -206 -150 -275 -39 -69 -92 -168
-118 -220 -26 -52 -89 -169 -140 -260 -50 -91 -138 -248 -195 -350 -56 -102
-135 -241 -175 -310 -40 -69 -107 -188 -148 -265 -407 -762 -1382 -2257 -1841
-2825 -432 -535 -525 -607 -677 -527 -153 81 -307 649 -469 1737 -17 113 -46
297 -65 410 -60 357 -307 2412 -335 2793 -6 72 -26 272 -44 442 -19 171 -37
364 -41 430 -3 66 -10 150 -15 187 -6 37 -14 143 -20 235 -6 93 -15 202 -20
243 -5 41 -14 140 -20 220 -6 80 -15 179 -20 220 -6 41 -15 145 -20 230 -5 85
-16 223 -24 305 -9 83 -20 211 -25 285 -6 74 -15 189 -20 255 -6 66 -15 183
-20 260 -6 77 -15 194 -20 260 -6 66 -15 185 -21 265 -5 80 -19 231 -30 335
-159 1523 -2002 1557 -2410 44 -23 -85 -64 -226 -90 -314 -27 -88 -72 -241
-100 -340 -28 -99 -100 -342 -160 -540 -60 -198 -132 -441 -160 -540 -74 -258
-355 -1189 -380 -1260 -20 -57 -97 -308 -250 -810 -37 -122 -90 -290 -118
-375 -28 -85 -69 -218 -92 -295 -41 -142 -86 -277 -550 -1670 -260 -778 -293
-873 -527 -1505 -69 -184 -149 -405 -180 -490 -179 -502 -761 -1886 -960
-2285 -686 -1368 -1202 -1678 -1833 -1100 -649 594 -1500 265 -1734 -671 -303
-1213 1229 -2119 2746 -1623 286 93 663 333 940 597 380 363 930 1206 1248
1912 241 533 286 638 380 870 54 135 122 299 150 365 69 161 199 485 270 675
32 85 98 256 148 380 49 124 117 302 150 395 33 94 102 278 152 410 126 328
175 461 333 890 75 204 193 523 263 710 69 187 159 437 199 555 40 118 95 271
123 340 27 69 70 188 95 265 24 77 68 203 97 280 28 77 96 271 150 430 159
471 251 691 308 735 100 79 146 -57 192 -570 6 -69 33 -303 60 -520 27 -217
56 -469 64 -560 9 -91 30 -268 46 -395 17 -126 55 -420 85 -652 129 -1001 304
-2095 421 -2618 19 -88 51 -236 70 -330 331 -1607 852 -2234 1769 -2126 375
44 921 471 1411 1106 77 98 199 256 272 350 242 309 455 597 600 810 79 116
175 255 214 310 111 156 443 653 558 835 57 91 170 266 250 390 81 124 199
311 262 415 63 105 146 240 185 300 81 129 472 780 563 940 35 61 131 225 215
365 83 140 173 296 200 345 63 118 223 398 345 605 53 91 126 216 161 278 105
186 200 285 247 256 66 -40 66 -194 2 -679 -48 -366 -70 -543 -105 -840 -15
-121 -37 -296 -51 -390 -24 -172 -168 -1448 -205 -1825 -11 -113 -29 -290 -40
-395 -10 -104 -24 -255 -30 -335 -5 -80 -17 -208 -26 -285 -9 -81 -19 -302
-23 -525 -5 -236 -13 -414 -21 -460 -18 -102 -18 -654 -1 -765 7 -44 17 -176
23 -293 70 -1561 1018 -2855 2380 -3251 364 -105 691 -169 949 -186 52 -3 160
-14 240 -23 191 -22 463 -22 660 0 85 10 220 25 300 33 349 36 974 185 1304
310 1439 545 2571 1450 3425 2740 2548 3847 2050 9795 -1180 14086 -2639 3506
-6488 5656 -10619 5930 -91 6 -219 15 -285 20 -118 9 -1295 19 -1490 13z
m-9092 -3412 c337 -166 638 -845 446 -1006 -148 -125 -642 191 -805 517 -174
344 45 643 359 489z m-1767 -1297 c363 -176 672 -904 442 -1040 -133 -78 -541
138 -731 388 -334 437 -145 863 289 652z m-1702 -1445 c396 -149 778 -914 493
-991 -193 -52 -638 240 -795 521 -172 308 4 581 302 470z"/></g>
<path d="M831.00 846.00 Q831.00 829.00 848.00 829.00 L983.35 829.00 Q997.35 829.00 989.71 840.73 L872.01 1021.59 Q863.28 1035.00 847.28 1035.00 L838.72 1035.00 Q822.72 1035.00 831.44 1021.59 L929.20 871.38 Q934.65 863.00 924.65 863.00 L848.00 863.00 Q831.00 863.00 831.00 846.00 Z" fill="#5B8AC9"/>
</svg>
